<svg xmlns="http://www.w3.org/2000/svg" width="98.708" height="40" viewBox="0 0 98.708 40"><path d="M-45.239-8.97q1.108-1.723,3.9-1.723v2.441a3.255,3.255,0,0,0-.595-.062,3.1,3.1,0,0,0-2.338.872,3.477,3.477,0,0,0-.841,2.513V.384H-47.68V-10.57h2.441Zm16.267,3.938q0,.267-.041.759h-8.595a2.979,2.979,0,0,0,1.179,1.918,3.866,3.866,0,0,0,2.369.708,3.993,3.993,0,0,0,2.974-1.19l1.374,1.579A4.631,4.631,0,0,1-31.577.076a6.8,6.8,0,0,1-2.544.451A6.769,6.769,0,0,1-37.3-.19a5.171,5.171,0,0,1-2.123-2,5.648,5.648,0,0,1-.749-2.9,5.732,5.732,0,0,1,.728-2.882,5.165,5.165,0,0,1,2.021-2,5.9,5.9,0,0,1,2.913-.718,5.747,5.747,0,0,1,2.862.708A5.012,5.012,0,0,1-29.68-8,6.033,6.033,0,0,1-28.972-5.031Zm-5.538-3.61a3.093,3.093,0,0,0-2.082.728,3.063,3.063,0,0,0-1.036,1.938h6.215A3.023,3.023,0,0,0-32.418-7.9,3.057,3.057,0,0,0-34.511-8.642Zm12.451-4.267q-1.621,0-1.621,1.764v.656h3.015v2.051H-23.6V.384h-2.564V-8.436h-1.805v-2.051h1.805v-.7a3.735,3.735,0,0,1,1.026-2.779,3.934,3.934,0,0,1,2.892-1.015,3.956,3.956,0,0,1,2.318.595l-.718,1.928A2.45,2.45,0,0,0-22.059-12.908ZM-8.808-5.031q0,.267-.041.759h-8.595a2.979,2.979,0,0,0,1.179,1.918,3.866,3.866,0,0,0,2.369.708,3.993,3.993,0,0,0,2.974-1.19l1.374,1.579A4.631,4.631,0,0,1-11.413.076a6.8,6.8,0,0,1-2.544.451A6.769,6.769,0,0,1-17.136-.19a5.171,5.171,0,0,1-2.123-2,5.648,5.648,0,0,1-.749-2.9,5.732,5.732,0,0,1,.728-2.882,5.165,5.165,0,0,1,2.021-2,5.9,5.9,0,0,1,2.913-.718,5.747,5.747,0,0,1,2.862.708A5.012,5.012,0,0,1-9.516-8,6.033,6.033,0,0,1-8.808-5.031Zm-5.538-3.61a3.093,3.093,0,0,0-2.082.728,3.063,3.063,0,0,0-1.036,1.938h6.215A3.023,3.023,0,0,0-12.254-7.9,3.057,3.057,0,0,0-14.347-8.642ZM-3.906-8.97q1.108-1.723,3.9-1.723v2.441A3.255,3.255,0,0,0-.6-8.313a3.1,3.1,0,0,0-2.338.872,3.477,3.477,0,0,0-.841,2.513V.384H-6.347V-10.57h2.441ZM12.361-5.031q0,.267-.041.759H3.725A2.979,2.979,0,0,0,4.9-2.354a3.866,3.866,0,0,0,2.369.708,3.993,3.993,0,0,0,2.974-1.19l1.374,1.579A4.631,4.631,0,0,1,9.756.076,6.8,6.8,0,0,1,7.212.528,6.769,6.769,0,0,1,4.033-.19a5.171,5.171,0,0,1-2.123-2,5.648,5.648,0,0,1-.749-2.9,5.732,5.732,0,0,1,.728-2.882,5.165,5.165,0,0,1,2.021-2,5.9,5.9,0,0,1,2.913-.718,5.747,5.747,0,0,1,2.862.708A5.012,5.012,0,0,1,11.653-8,6.033,6.033,0,0,1,12.361-5.031ZM6.823-8.642a3.093,3.093,0,0,0-2.082.728A3.063,3.063,0,0,0,3.7-5.975H9.92A3.023,3.023,0,0,0,8.915-7.9,3.057,3.057,0,0,0,6.823-8.642Zm14.215-2.051a4.577,4.577,0,0,1,3.323,1.21,4.774,4.774,0,0,1,1.251,3.59V.384H23.048V-5.565a3.075,3.075,0,0,0-.677-2.164,2.5,2.5,0,0,0-1.928-.728,2.96,2.96,0,0,0-2.236.851,3.393,3.393,0,0,0-.821,2.451V.384H14.823V-10.57h2.441v1.415a4.009,4.009,0,0,1,1.6-1.149A5.758,5.758,0,0,1,21.038-10.693ZM34,.528A6.422,6.422,0,0,1,30.946-.19a5.272,5.272,0,0,1-2.113-2,5.589,5.589,0,0,1-.759-2.9,5.534,5.534,0,0,1,.759-2.892,5.311,5.311,0,0,1,2.1-1.99A6.406,6.406,0,0,1,34-10.693a5.908,5.908,0,0,1,2.841.656,4.259,4.259,0,0,1,1.836,1.887L36.71-7A3.128,3.128,0,0,0,35.53-8.139a3.225,3.225,0,0,0-1.549-.379,3.245,3.245,0,0,0-2.379.933,3.348,3.348,0,0,0-.944,2.492A3.368,3.368,0,0,0,31.592-2.6a3.236,3.236,0,0,0,2.39.933,3.225,3.225,0,0,0,1.549-.379A3.128,3.128,0,0,0,36.71-3.185l1.969,1.149a4.438,4.438,0,0,1-1.856,1.9A5.79,5.79,0,0,1,34,.528ZM51.028-5.031q0,.267-.041.759H42.392a2.979,2.979,0,0,0,1.179,1.918,3.866,3.866,0,0,0,2.369.708,3.993,3.993,0,0,0,2.974-1.19l1.374,1.579A4.631,4.631,0,0,1,48.423.076a6.8,6.8,0,0,1-2.544.451A6.769,6.769,0,0,1,42.7-.19a5.171,5.171,0,0,1-2.123-2,5.648,5.648,0,0,1-.749-2.9,5.732,5.732,0,0,1,.728-2.882,5.165,5.165,0,0,1,2.021-2,5.9,5.9,0,0,1,2.913-.718,5.747,5.747,0,0,1,2.862.708A5.012,5.012,0,0,1,50.32-8,6.033,6.033,0,0,1,51.028-5.031Zm-5.538-3.61a3.093,3.093,0,0,0-2.082.728,3.063,3.063,0,0,0-1.036,1.938h6.215A3.023,3.023,0,0,0,47.582-7.9,3.057,3.057,0,0,0,45.489-8.642Zm-65.9,14.318h2.564V20.9h-2.564ZM-9.557,21.041a6.215,6.215,0,0,1-2.995-.718,5.235,5.235,0,0,1-2.082-2,5.648,5.648,0,0,1-.749-2.9,5.593,5.593,0,0,1,.749-2.892,5.256,5.256,0,0,1,2.082-1.99A6.215,6.215,0,0,1-9.557,9.82a6.258,6.258,0,0,1,3.015.718,5.256,5.256,0,0,1,2.082,1.99,5.593,5.593,0,0,1,.749,2.892,5.648,5.648,0,0,1-.749,2.9,5.235,5.235,0,0,1-2.082,2A6.258,6.258,0,0,1-9.557,21.041Zm0-2.195A3.133,3.133,0,0,0-7.218,17.9,3.4,3.4,0,0,0-6.3,15.42a3.4,3.4,0,0,0-.923-2.482,3.133,3.133,0,0,0-2.338-.944,3.1,3.1,0,0,0-2.328.944A3.419,3.419,0,0,0-12.8,15.42a3.419,3.419,0,0,0,.913,2.482A3.1,3.1,0,0,0-9.557,18.846Zm19.179-8.9v9.292q0,5.785-5.908,5.785a10.963,10.963,0,0,1-2.995-.4,6.354,6.354,0,0,1-2.338-1.159L-.47,21.533a5.489,5.489,0,0,0,1.815.954,7.117,7.117,0,0,0,2.226.359,3.673,3.673,0,0,0,2.646-.821,3.354,3.354,0,0,0,.841-2.5v-.574a4.215,4.215,0,0,1-1.6,1.087,5.639,5.639,0,0,1-2.072.369,5.942,5.942,0,0,1-2.821-.667,5.008,5.008,0,0,1-1.99-1.877,5.266,5.266,0,0,1-.728-2.769,5.212,5.212,0,0,1,.728-2.759,4.959,4.959,0,0,1,1.99-1.856A6.018,6.018,0,0,1,3.387,9.82a5.779,5.779,0,0,1,2.164.39A3.992,3.992,0,0,1,7.182,11.4V9.943ZM3.776,18.23a3.362,3.362,0,0,0,2.39-.872A2.96,2.96,0,0,0,7.1,15.092a2.9,2.9,0,0,0-.933-2.236,3.385,3.385,0,0,0-2.39-.862,3.413,3.413,0,0,0-2.41.862,2.9,2.9,0,0,0-.933,2.236,2.96,2.96,0,0,0,.933,2.267A3.39,3.39,0,0,0,3.776,18.23Zm14.133,2.81a6.215,6.215,0,0,1-2.995-.718,5.235,5.235,0,0,1-2.082-2,5.648,5.648,0,0,1-.749-2.9,5.593,5.593,0,0,1,.749-2.892,5.256,5.256,0,0,1,2.082-1.99A6.215,6.215,0,0,1,17.91,9.82a6.258,6.258,0,0,1,3.015.718,5.256,5.256,0,0,1,2.082,1.99,5.593,5.593,0,0,1,.749,2.892,5.648,5.648,0,0,1-.749,2.9,5.235,5.235,0,0,1-2.082,2A6.258,6.258,0,0,1,17.91,21.041Zm0-2.195a3.133,3.133,0,0,0,2.338-.944,3.4,3.4,0,0,0,.923-2.482,3.4,3.4,0,0,0-.923-2.482,3.133,3.133,0,0,0-2.338-.944,3.1,3.1,0,0,0-2.328.944,3.419,3.419,0,0,0-.913,2.482,3.419,3.419,0,0,0,.913,2.482A3.1,3.1,0,0,0,17.91,18.846Z" transform="translate(47.68 14.98)" fill="#fff"/></svg>